<svg width="30" height="22" viewBox="0 0 30 22" fill="none" xmlns="http://www.w3.org/2000/svg">
<path d="M22.4923 22L18.4 14.1073H18.3692V22H11.5385V0H21.6923C23.4564 0 24.9641 0.321092 26.2154 0.963275C27.4667 1.58475 28.4 2.44444 29.0154 3.54237C29.6513 4.61958 29.9692 5.84181 29.9692 7.20904C29.9692 8.67985 29.559 9.98493 28.7385 11.1243C27.9385 12.2637 26.7795 13.0819 25.2615 13.5791L30 22H22.4923ZM18.3692 9.50847H21.0769C21.7333 9.50847 22.2256 9.36346 22.5538 9.07345C22.8821 8.76271 23.0462 8.28625 23.0462 7.64407C23.0462 7.06403 22.8718 6.60829 22.5231 6.27683C22.1949 5.94538 21.7128 5.77966 21.0769 5.77966H18.3692V9.50847Z" fill="#1A7DF1"/>
<path d="M10.9538 22L6.86154 14.1073H6.83077V22H0V0H10.1538C11.9179 0 13.4256 0.321092 14.6769 0.963275C15.9282 1.58475 16.8615 2.44444 17.4769 3.54237C18.1128 4.61958 18.4308 5.84181 18.4308 7.20904C18.4308 8.67985 18.0205 9.98493 17.2 11.1243C16.4 12.2637 15.241 13.0819 13.7231 13.5791L18.4615 22H10.9538ZM6.83077 9.50847H9.53846C10.1949 9.50847 10.6872 9.36346 11.0154 9.07345C11.3436 8.76271 11.5077 8.28625 11.5077 7.64407C11.5077 7.06403 11.3333 6.60829 10.9846 6.27683C10.6564 5.94538 10.1744 5.77966 9.53846 5.77966H6.83077V9.50847Z" fill="white"/>
</svg>
