<svg width="51" height="45" viewBox="0 0 51 45" fill="none" xmlns="http://www.w3.org/2000/svg">
<path d="M37.488 39L31.104 26.808H31.056V39H20.4V5.016H36.24C38.992 5.016 41.344 5.512 43.296 6.504C45.248 7.464 46.704 8.792 47.664 10.488C48.656 12.152 49.152 14.04 49.152 16.152C49.152 18.424 48.512 20.44 47.232 22.2C45.984 23.96 44.176 25.224 41.808 25.992L49.2 39H37.488ZM31.056 19.704H35.28C36.304 19.704 37.072 19.48 37.584 19.032C38.096 18.552 38.352 17.816 38.352 16.824C38.352 15.928 38.08 15.224 37.536 14.712C37.024 14.2 36.272 13.944 35.28 13.944H31.056V19.704Z" fill="#1A7DF1"/>
<path d="M19.488 39L13.104 26.808H13.056V39H2.4V5.016H18.24C20.992 5.016 23.344 5.512 25.296 6.504C27.248 7.464 28.704 8.792 29.664 10.488C30.656 12.152 31.152 14.04 31.152 16.152C31.152 18.424 30.512 20.44 29.232 22.2C27.984 23.96 26.176 25.224 23.808 25.992L31.2 39H19.488ZM13.056 19.704H17.28C18.304 19.704 19.072 19.48 19.584 19.032C20.096 18.552 20.352 17.816 20.352 16.824C20.352 15.928 20.08 15.224 19.536 14.712C19.024 14.2 18.272 13.944 17.28 13.944H13.056V19.704Z" fill="#2E2E2E"/>
</svg>
